<svg width="214" height="214" viewBox="0 0 214 214" fill="none" xmlns="http://www.w3.org/2000/svg">
<circle cx="107.5" cy="106.5" r="49.5" fill="#E1A60F"/>
<path d="M106.038 9.91132C106.463 7.76247 109.537 7.76246 109.962 9.91132L117.92 50.1116C118.164 51.3481 117.218 52.5 115.958 52.5H100.042C98.7819 52.5 97.8357 51.3481 98.0805 50.1116L106.038 9.91132Z" fill="#E1A60F"/>
<path d="M24.5644 158.136C22.4908 158.842 20.9542 156.18 22.6025 154.738L53.4382 127.746C54.3866 126.916 55.8573 127.159 56.4875 128.251L64.4451 142.034C65.0754 143.125 64.5509 144.521 63.3577 144.927L24.5644 158.136Z" fill="#E1A60F"/>
<path d="M60.4656 191.601C59.0228 193.249 56.3613 191.712 57.0674 189.639L70.2761 150.845C70.6824 149.652 72.0777 149.128 73.1693 149.758L86.9523 157.716C88.0439 158.346 88.2874 159.817 87.4572 160.765L60.4656 191.601Z" fill="#E1A60F"/>
<path d="M189.639 56.0675C191.712 55.3614 193.249 58.0228 191.601 59.4656L160.765 86.4573C159.816 87.2875 158.346 87.044 157.716 85.9524L149.758 72.1694C149.128 71.0778 149.652 69.6824 150.845 69.2761L189.639 56.0675Z" fill="#E1A60F"/>
<path d="M153.738 22.6025C155.18 20.9542 157.842 22.4908 157.136 24.5644L143.927 63.3577C143.521 64.5509 142.125 65.0754 141.034 64.4451L127.251 56.4875C126.159 55.8573 125.916 54.3866 126.746 53.4382L153.738 22.6025Z" fill="#E1A60F"/>
<path d="M56.5675 25.0644C55.8614 22.9908 58.5228 21.4542 59.9656 23.1025L86.9573 53.9382C87.7875 54.8866 87.544 56.3573 86.4524 56.9875L72.6694 64.9451C71.5778 65.5754 70.1824 65.0509 69.7761 63.8577L56.5675 25.0644Z" fill="#E1A60F"/>
<path d="M23.1025 60.9656C21.4542 59.5228 22.9908 56.8614 25.0644 57.5675L63.8577 70.7761C65.0509 71.1824 65.5754 72.5778 64.9451 73.6694L56.9875 87.4524C56.3573 88.544 54.8866 88.7875 53.9382 87.9573L23.1025 60.9656Z" fill="#E1A60F"/>
<path d="M159.136 187.639C159.842 189.712 157.18 191.249 155.738 189.601L128.746 158.765C127.916 157.817 128.159 156.346 129.251 155.716L143.034 147.758C144.125 147.128 145.521 147.652 145.927 148.845L159.136 187.639Z" fill="#E1A60F"/>
<path d="M192.601 151.738C194.249 153.18 192.712 155.842 190.639 155.136L151.845 141.927C150.652 141.521 150.128 140.125 150.758 139.034L158.716 125.251C159.346 124.159 160.816 123.916 161.765 124.746L192.601 151.738Z" fill="#E1A60F"/>
<path d="M203.787 104.737C205.936 105.162 205.936 108.235 203.787 108.66L163.587 116.618C162.35 116.863 161.198 115.917 161.198 114.656V98.7409C161.198 97.4804 162.35 96.5342 163.587 96.779L203.787 104.737Z" fill="#E1A60F"/>
<path d="M109.962 204.089C109.537 206.238 106.463 206.238 106.038 204.089L98.0805 163.888C97.8357 162.652 98.7819 161.5 100.042 161.5H115.958C117.218 161.5 118.164 162.652 117.92 163.888L109.962 204.089Z" fill="#E1A60F"/>
<path d="M9.91132 108.962C7.76247 108.537 7.76246 105.463 9.91132 105.038L50.1116 97.0805C51.3481 96.8357 52.5 97.7819 52.5 99.0424V114.958C52.5 116.218 51.3481 117.164 50.1116 116.92L9.91132 108.962Z" fill="#E1A60F"/>
</svg>
